<svg xmlns="http://www.w3.org/2000/svg" xmlns:xlink="http://www.w3.org/1999/xlink" version="1.1" x="0px" y="0px" width="100px" height="100px" viewBox="5.0 -10.0 100.0 135.0" enable-background="new 0 0 100 100" xml:space="preserve">
<g id="Layer_1">
	<path d="M15.712,27.372c-4.453,0-8.075-3.622-8.075-8.075s3.622-8.075,8.075-8.075c4.453,0,8.075,3.622,8.075,8.075   S20.165,27.372,15.712,27.372z M15.712,12.694c-3.641,0-6.603,2.962-6.603,6.603s2.962,6.603,6.603,6.603s6.603-2.962,6.603-6.603   S19.353,12.694,15.712,12.694z"/>
	<path d="M76.212,19.297c0-4.453,3.623-8.075,8.075-8.075c4.453,0,8.075,3.622,8.075,8.075s-3.622,8.075-8.075,8.075   C79.835,27.372,76.212,23.75,76.212,19.297z M77.685,19.297c0,3.641,2.962,6.603,6.603,6.603c3.641,0,6.603-2.962,6.603-6.603   s-2.962-6.603-6.603-6.603C80.647,12.694,77.685,15.656,77.685,19.297z"/>
	<path fill="none" d="M33.34,30.707c3.641,0,6.603-2.962,6.603-6.603s-2.962-6.603-6.603-6.603s-6.603,2.962-6.603,6.603   S29.699,30.707,33.34,30.707z"/>
	<path fill="none" d="M50,35.749c3.641,0,6.603-2.962,6.603-6.603S53.641,22.543,50,22.543s-6.603,2.962-6.603,6.603   S46.359,35.749,50,35.749z"/>
	<path fill="none" d="M54.79,40.286l-9.955,0c-2.797,0-4.049,1.048-4.049,2.086v5.502c2.837-1.182,5.949-1.837,9.214-1.837   c3.26,0,6.366,0.653,9.199,1.831l-0.008-5.495C59.191,41.719,58.083,40.286,54.79,40.286z"/>
	<path fill="none" d="M66.694,30.707c3.641,0,6.603-2.962,6.603-6.603s-2.962-6.603-6.603-6.603s-6.603,2.962-6.603,6.603   S63.054,30.707,66.694,30.707z"/>
	<path d="M50,37.221c4.453,0,8.075-3.622,8.075-8.075S54.453,21.071,50,21.071c-4.453,0-8.075,3.622-8.075,8.075   S45.547,37.221,50,37.221z M50,22.543c3.641,0,6.603,2.962,6.603,6.603S53.641,35.749,50,35.749s-6.603-2.962-6.603-6.603   S46.359,22.543,50,22.543z"/>
	<path d="M40.786,42.372c0-1.038,1.252-2.086,4.049-2.086l9.955,0c3.293,0,4.401,1.433,4.401,2.087l0.008,5.495   c0.5,0.208,0.991,0.434,1.473,0.675l-0.009-6.171c0-1.725-2.058-3.559-5.874-3.559l-9.955,0c-4.075,0-5.522,1.917-5.522,3.558   v6.178c0.482-0.241,0.972-0.468,1.472-0.676V42.372z"/>
	<path d="M33.34,32.18c4.453,0,8.075-3.622,8.075-8.075s-3.623-8.075-8.075-8.075c-4.453,0-8.075,3.622-8.075,8.075   S28.887,32.18,33.34,32.18z M33.34,17.501c3.641,0,6.603,2.962,6.603,6.603s-2.962,6.603-6.603,6.603s-6.603-2.962-6.603-6.603   S29.699,17.501,33.34,17.501z"/>
	<path d="M26.641,64.6v-8.31l-0.216-0.216c-1.169-1.169-2.244-2.54-2.3-2.915V37.331c0-1.038,1.252-2.086,4.049-2.086l11.665,0   v-1.472l-11.665,0c-4.075,0-5.522,1.917-5.522,3.559v15.829c0,0.994,1.488,2.688,2.515,3.739v17.244   c0,0.718,0.68,1.595,1.473,1.595h0.069c-0.449-1.833-0.692-3.747-0.692-5.718C26.019,68.154,26.238,66.342,26.641,64.6z"/>
	<path d="M5.026,32.523v15.829c0,0.994,1.488,2.688,2.515,3.739v17.244c0,0.718,0.68,1.595,1.473,1.595h13.194l0.004-1.472h-13.1   c-0.042-0.041-0.09-0.106-0.098-0.123V51.483l-0.216-0.216c-1.169-1.169-2.244-2.54-2.3-2.915V32.523   c0-1.038,1.252-2.086,4.049-2.086l11.665,0v-1.472l-11.665,0C6.472,28.965,5.026,30.882,5.026,32.523z"/>
	<path d="M66.694,32.18c4.453,0,8.075-3.622,8.075-8.075s-3.622-8.075-8.075-8.075c-4.453,0-8.075,3.622-8.075,8.075   S62.242,32.18,66.694,32.18z M66.694,17.501c3.641,0,6.603,2.962,6.603,6.603s-2.962,6.603-6.603,6.603s-6.603-2.962-6.603-6.603   S63.054,17.501,66.694,17.501z"/>
	<path d="M71.859,33.772l-11.665,0v1.472l11.665,0c2.797,0,4.049,1.048,4.049,2.086v15.829c-0.056,0.375-1.131,1.746-2.3,2.915   l-0.216,0.216v8.458c0.381,1.697,0.588,3.459,0.588,5.27c0,1.971-0.243,3.885-0.692,5.718h0.103c0.793,0,1.473-0.877,1.473-1.595   V56.898c1.028-1.051,2.515-2.745,2.515-3.739V37.331C77.381,35.689,75.935,33.772,71.859,33.772z"/>
	<path d="M89.453,28.965l-11.665,0v1.472l11.665,0c2.797,0,4.049,1.048,4.049,2.086v15.829c-0.056,0.375-1.131,1.746-2.3,2.915   l-0.216,0.216v17.851c-0.008,0.017-0.056,0.082-0.098,0.123h-13.1l0.004,1.472h13.194c0.793,0,1.473-0.877,1.473-1.595V52.09   c1.028-1.051,2.515-2.745,2.515-3.739V32.523C94.974,30.882,93.528,28.965,89.453,28.965z"/>
	<path d="M71.695,65.131c-1.481-6.599-5.891-12.088-11.797-15.029c-0.448-0.223-0.902-0.433-1.366-0.626   c-2.628-1.093-5.509-1.698-8.532-1.698c-3.028,0-5.914,0.608-8.545,1.704c-0.464,0.193-0.918,0.404-1.366,0.627   c-5.859,2.922-10.243,8.352-11.753,14.885c-0.373,1.616-0.577,3.296-0.577,5.025c0,1.828,0.225,3.603,0.641,5.303   C30.78,85.044,39.545,92.259,50,92.259s19.22-7.216,21.599-16.938c0.416-1.7,0.641-3.475,0.641-5.303   C72.241,68.339,72.048,66.705,71.695,65.131z M49.439,84.692c-1.403,0-2.393-1.114-2.393-2.559c0-1.526,1.031-2.599,2.435-2.599   c1.485,0,2.434,1.072,2.434,2.599C51.914,83.578,50.966,84.692,49.439,84.692z M53.441,69.179   c-1.815,2.146-2.476,4.002-2.353,6.106l0.083,1.031h-3.26l-0.082-1.072c-0.248-2.188,0.495-4.663,2.558-7.139   c1.856-2.187,2.889-3.796,2.889-5.652c0-2.104-1.32-3.507-3.92-3.549c-1.485,0-3.136,0.496-4.167,1.279l-0.99-2.6   c1.402-0.99,3.713-1.65,5.9-1.65c4.745,0,6.89,2.93,6.89,6.065C56.989,64.805,55.422,66.826,53.441,69.179z"/>
</g>
<g id="Guides">
</g>
<text x="0.0" y="117.5" font-size="5.0" font-weight="bold" font-family="Helvetica Neue, Helvetica, Arial-Unicode, Arial, Sans-serif" fill="#000000">Created by Ben Peetermans</text><text x="0.0" y="122.5" font-size="5.0" font-weight="bold" font-family="Helvetica Neue, Helvetica, Arial-Unicode, Arial, Sans-serif" fill="#000000">from the Noun Project</text></svg>